<svg id="Layer_1" data-name="Layer 1" xmlns="http://www.w3.org/2000/svg" viewBox="0 0 129.65108 129.59542"><title>go back - back button</title><path d="M11.62,58.82807c.10692-7.27461-.39508-14.56146.26715-21.82288A31.67693,31.67693,0,0,1,24.20381,14.46761a32.62006,32.62006,0,0,1,20.99392-7.041Q74.61645,7.36858,104.0354,7.418c2.47286.001,4.93968-.00718,7.41475.23905a32.05022,32.05022,0,0,1,22.59424,12.24153,32.66808,32.66808,0,0,1,7.13632,21.10937q.0199,29.93887.001,59.87776a64.367,64.367,0,0,1-.235,6.523,32.10183,32.10183,0,0,1-12.35993,22.529,32.57074,32.57074,0,0,1-20.9933,7.041q-29.41874.05631-58.83768.00822c-2.47272-.001-4.93937.00636-7.41438-.2388a32.04562,32.04562,0,0,1-22.594-12.24244,32.60508,32.60508,0,0,1-7.139-21.10367Q11.60676,87.801,11.608,72.20009C11.6079,67.74269,11.55451,63.28451,11.62,58.82807ZM75.67454,32.33923a3.88447,3.88447,0,0,0-3.02434,1.22068Q54.45569,51.82228,36.20974,70.03342c-1.44532,1.44585-1.44686,1.68313-.01365,3.1169q18.1724,18.17954,36.33725,36.3666a4.29824,4.29824,0,0,0,3.29944,1.33809c11.34169-.03068,22.6835-.01726,34.02527-.01857a9.425,9.425,0,0,0,1.03865-.03085c.62506-.06954.79132-.3828.37532-.88606-.283-.34237-.61184-.64756-.92689-.96265Q92.748,91.3577,75.14979,73.75969c-1.97268-1.97291-1.97181-2.3458.00729-4.3252q17.65037-17.65291,35.29578-35.31077c.40486-.40543,1.19212-.787.98175-1.36689-.26288-.7246-1.13464-.38162-1.735-.38415-5.69555-.02406-11.39124-.01434-17.08689-.01434C86.96663,32.35855,81.32032,32.38306,75.67454,32.33923ZM109.02977,8.22136V8.08753H43.76749l0,.13384Z" transform="translate(-11.53747 -7.40458)"/><rect x="43.72603" y="8" width="66" height="1" transform="translate(141.91459 9.59542) rotate(-180)"/></svg>