<svg id="Layer_1" data-name="Layer 1" xmlns="http://www.w3.org/2000/svg" viewBox="0 0 129.65108 129.59542"><title>See more button-forward</title><path d="M141.118,72.20009q-.00022,15.60091-.00042,31.20181a32.60509,32.60509,0,0,1-7.139,21.10367,32.04562,32.04562,0,0,1-22.594,12.24244c-2.475.24516-4.94166.23783-7.41438.2388q-29.41885.0115-58.83768-.00822a32.57074,32.57074,0,0,1-20.9933-7.041,32.10183,32.10183,0,0,1-12.35993-22.529,64.36706,64.36706,0,0,1-.235-6.523q-.00889-29.93888.001-59.87776a32.66808,32.66808,0,0,1,7.13632-21.10937A32.05023,32.05023,0,0,1,41.27587,7.657c2.47507-.24624,4.94189-.23809,7.41475-.23905q29.41885-.01144,58.83767.00866a32.62006,32.62006,0,0,1,20.99392,7.041,31.67693,31.67693,0,0,1,12.31665,22.53758c.66223,7.26142.16023,14.54827.26715,21.82288C141.17152,63.28451,141.11813,67.74269,141.118,72.20009ZM60.11328,32.35834c-5.69565,0-11.39134-.00972-17.08689.01434-.60034.00253-1.47209-.34045-1.735.38415-.21038.57988.57688.96146.98175,1.36689Q59.91248,51.78766,77.56894,69.43449c1.97911,1.9794,1.98,2.35229.00729,4.3252Q59.97912,91.35883,42.3809,108.95687c-.31506.31509-.64388.62028-.92689.96265-.416.50326-.24974.81652.37532.88606a9.425,9.425,0,0,0,1.03865.03085c11.34177.00131,22.68358-.01211,34.02527.01857a4.29824,4.29824,0,0,0,3.29944-1.33809q18.14554-18.20631,36.33725-36.3666c1.43321-1.43377,1.43167-1.671-.01365-3.1169Q98.29114,51.80156,80.07583,33.55991a3.88447,3.88447,0,0,0-3.02434-1.22068C71.4057,32.38306,65.7594,32.35855,60.11328,32.35834Zm48.84525-24.137,0-.13384H43.69627v.13384Z" transform="translate(-11.53747 -7.40458)"/><rect x="31.46253" y="0.59542" width="66" height="1"/></svg>